<?xml version="1.0" encoding="utf-8"?>
<!-- Generator: Adobe Illustrator 16.0.0, SVG Export Plug-In . SVG Version: 6.00 Build 0)  -->
<!DOCTYPE svg PUBLIC "-//W3C//DTD SVG 1.1//EN" "http://www.w3.org/Graphics/SVG/1.1/DTD/svg11.dtd">
<svg version="1.1" id="Layer_1" xmlns="http://www.w3.org/2000/svg" xmlns:xlink="http://www.w3.org/1999/xlink" x="0px" y="0px"
	 width="720px" height="720px" viewBox="0 0 720 720" enable-background="new 0 0 720 720" xml:space="preserve">
<path fill="#FFFFFF" d="M92.769,518.541L7.335,370.567l85.434-147.977h170.867l85.434,147.977l-85.434,147.974H92.769z"/>
<polygon fill="#FFFFFF" points="358.587,671.745 273.154,523.771 358.587,375.797 529.457,375.797 614.89,523.771 529.457,671.745 
	"/>
<polygon fill="#FFFFFF" points="358.587,365.567 273.154,217.593 358.587,69.618 529.455,69.618 614.89,217.593 529.455,365.567 "/>
<g>
	<g>
		<path fill="#FFFFFF" d="M225.345,56.236L183.993,86.72l82.072,111.335l-14.844,10.943L169.148,97.664l-41.353,30.484
			l-10.162-13.785l97.55-71.912L225.345,56.236z"/>
		<g>
			<path fill="#FFFFFF" d="M221.56,49.76c-13.784,10.161-27.568,20.323-41.353,30.484c-3.006,2.216-5.3,6.721-2.69,10.261
				c27.239,36.952,54.479,73.903,81.717,110.854c0.119,0.16,0.237,0.321,0.355,0.481c0.897-3.421,1.794-6.841,2.69-10.262
				c-4.948,3.648-9.896,7.295-14.844,10.943c3.42,0.897,6.841,1.794,10.261,2.69c-27.239-36.951-54.479-73.902-81.718-110.854
				c-0.119-0.16-0.237-0.321-0.355-0.481c-2.216-3.006-6.721-5.301-10.262-2.691c-13.784,10.161-27.568,20.323-41.353,30.484
				c3.42,0.897,6.841,1.794,10.261,2.691c-3.387-4.595-6.774-9.19-10.162-13.785c-0.897,3.42-1.794,6.841-2.691,10.261
				c32.517-23.971,65.034-47.941,97.55-71.912c-3.42-0.897-6.841-1.794-10.261-2.691c3.387,4.595,6.774,9.19,10.162,13.785
				c2.42,3.284,6.451,4.923,10.262,2.691c3.245-1.901,5.122-6.963,2.69-10.261c-3.387-4.595-6.774-9.19-10.162-13.785
				c-2.216-3.006-6.721-5.301-10.261-2.691c-32.517,23.971-65.034,47.941-97.55,71.912c-3.006,2.216-5.301,6.721-2.691,10.261
				c3.387,4.595,6.774,9.19,10.162,13.785c2.216,3.006,6.721,5.301,10.261,2.691c13.785-10.161,27.569-20.323,41.354-30.484
				c-3.421-0.896-6.841-1.794-10.262-2.691c27.239,36.952,54.479,73.903,81.718,110.854c0.119,0.16,0.237,0.321,0.355,0.481
				c2.216,3.006,6.721,5.3,10.261,2.69c4.948-3.648,9.896-7.295,14.845-10.943c3.006-2.216,5.3-6.721,2.69-10.262
				c-27.239-36.951-54.479-73.902-81.717-110.854c-0.119-0.16-0.237-0.321-0.355-0.481c-0.897,3.42-1.794,6.841-2.69,10.261
				c13.784-10.161,27.568-20.323,41.353-30.484c3.283-2.42,4.922-6.451,2.69-10.261C229.92,49.206,224.858,47.329,221.56,49.76z"/>
		</g>
	</g>
</g>
<g>
	<g>
		<path fill="#FFFFFF" d="M686.753,431.109v-51.375H548.438v-18.442h138.315v-51.375h17.125v121.192H686.753z"/>
		<g>
			<path fill="#FFFFFF" d="M694.253,431.109c0-17.125,0-34.25,0-51.375c0-4.09-3.411-7.5-7.5-7.5c-45.906,0-91.812,0-137.719,0
				c-0.199,0-0.398,0-0.599,0c2.5,2.5,5,5,7.5,7.5c0-6.147,0-12.295,0-18.442c-2.5,2.5-5,5-7.5,7.5c45.906,0,91.812,0,137.72,0
				c0.198,0,0.397,0,0.598,0c4.089,0,7.5-3.411,7.5-7.5c0-17.125,0-34.25,0-51.375c-2.5,2.5-5,5-7.5,7.5c5.708,0,11.417,0,17.125,0
				c-2.5-2.5-5-5-7.5-7.5c0,40.397,0,80.795,0,121.192c2.5-2.5,5-5,7.5-7.5c-5.708,0-11.417,0-17.125,0c-9.673,0-9.673,15,0,15
				c5.708,0,11.417,0,17.125,0c4.089,0,7.5-3.411,7.5-7.5c0-40.397,0-80.795,0-121.192c0-4.088-3.411-7.5-7.5-7.5
				c-5.708,0-11.417,0-17.125,0c-4.089,0-7.5,3.412-7.5,7.5c0,17.125,0,34.25,0,51.375c2.5-2.5,5-5,7.5-7.5
				c-45.906,0-91.812,0-137.719,0c-0.199,0-0.398,0-0.599,0c-4.089,0-7.5,3.412-7.5,7.5c0,6.147,0,12.295,0,18.442
				c0,4.089,3.411,7.5,7.5,7.5c45.906,0,91.812,0,137.72,0c0.198,0,0.397,0,0.598,0c-2.5-2.5-5-5-7.5-7.5c0,17.125,0,34.25,0,51.375
				C679.253,440.782,694.253,440.782,694.253,431.109z"/>
		</g>
	</g>
</g>
<g>
	<g>
		<path fill="#FFFFFF" d="M129.751,612.5l41.85,29.798l80.223-112.675l15.023,10.695l-80.223,112.675l41.852,29.798l-9.933,13.95
			l-98.725-70.291L129.751,612.5z"/>
		<g>
			<path fill="#FFFFFF" d="M125.966,618.976c13.95,9.934,27.9,19.865,41.85,29.799c3.546,2.524,8.062,0.397,10.261-2.69
				c26.625-37.396,53.25-74.792,79.875-112.188c0.116-0.162,0.231-0.324,0.347-0.487c-3.42,0.896-6.841,1.794-10.261,2.689
				c5.008,3.565,10.016,7.132,15.023,10.695c-0.897-3.42-1.794-6.841-2.691-10.261c-26.625,37.396-53.25,74.791-79.875,112.188
				c-0.116,0.162-0.231,0.324-0.347,0.487c-2.525,3.546-0.398,8.062,2.691,10.261c13.95,9.934,27.901,19.865,41.852,29.798
				c-0.897-3.42-1.794-6.841-2.691-10.261c-3.311,4.649-6.622,9.3-9.933,13.95c3.42-0.897,6.841-1.794,10.261-2.69
				c-32.908-23.431-65.816-46.86-98.725-70.291c0.897,3.42,1.794,6.842,2.691,10.262c3.311-4.649,6.622-9.301,9.933-13.95
				c5.624-7.898-7.393-15.378-12.952-7.57c-3.311,4.649-6.622,9.3-9.933,13.95c-2.525,3.546-0.398,8.062,2.691,10.261
				c32.908,23.431,65.816,46.861,98.725,70.291c3.546,2.525,8.062,0.398,10.261-2.689c3.311-4.649,6.622-9.301,9.933-13.95
				c2.525-3.546,0.398-8.062-2.691-10.261c-13.95-9.934-27.901-19.865-41.852-29.799c0.897,3.421,1.794,6.842,2.691,10.262
				c26.625-37.396,53.25-74.792,79.875-112.188c0.116-0.162,0.231-0.324,0.347-0.486c2.523-3.547,0.397-8.062-2.691-10.262
				c-5.008-3.564-10.016-7.131-15.023-10.694c-3.546-2.525-8.062-0.398-10.261,2.689c-26.625,37.396-53.25,74.791-79.875,112.188
				c-0.116,0.162-0.231,0.323-0.347,0.486c3.42-0.896,6.841-1.794,10.261-2.689c-13.95-9.934-27.9-19.865-41.85-29.798
				C125.638,600.4,118.159,613.417,125.966,618.976z"/>
		</g>
	</g>
</g>
<path fill="#FFFFFF" d="M172.16,84.279"/>
</svg>
