<?xml version="1.0" encoding="utf-8"?>
<!-- Generator: Adobe Illustrator 16.0.0, SVG Export Plug-In . SVG Version: 6.00 Build 0)  -->
<!DOCTYPE svg PUBLIC "-//W3C//DTD SVG 1.1//EN" "http://www.w3.org/Graphics/SVG/1.1/DTD/svg11.dtd">
<svg version="1.1" id="Layer_1" xmlns="http://www.w3.org/2000/svg" xmlns:xlink="http://www.w3.org/1999/xlink" x="0px" y="0px"
	 width="965px" height="690px" viewBox="0 0 965 690" enable-background="new 0 0 965 690" xml:space="preserve">
<title>Artboard-12</title>
<g id="Browser">
	<path fill="#F05A28" d="M482.5,28.75c-174.66,0-316.25,141.59-316.25,316.25S307.84,661.25,482.5,661.25S798.75,519.66,798.75,345
		C798.552,170.422,657.078,28.948,482.5,28.75z M622.541,415.926c2.422-23.564,3.659-47.236,3.709-70.926
		c-0.05-23.689-1.287-47.361-3.709-70.926C697.397,291.91,741.25,321.859,741.25,345S697.397,398.09,622.541,415.926z M482.5,603.75
		c-23.141,0-53.09-43.853-70.926-118.709c23.564,2.422,47.236,3.659,70.926,3.709c23.689-0.05,47.361-1.287,70.926-3.709
		C535.59,559.897,505.641,603.75,482.5,603.75z M482.5,431.25c-27.212,0.045-54.401-1.569-81.417-4.833
		c-6.444-54.087-6.444-108.747,0-162.834c54.087-6.444,108.747-6.444,162.834,0c3.264,27.016,4.878,54.205,4.833,81.417
		c0.045,27.212-1.569,54.401-4.833,81.417C536.901,429.681,509.712,431.295,482.5,431.25z M223.75,345
		c0-23.141,43.853-53.09,118.709-70.926c-4.945,47.155-4.945,94.698,0,141.852C267.603,398.09,223.75,368.141,223.75,345z
		 M482.5,86.25c23.141,0,53.09,43.853,70.926,118.709c-47.154-4.945-94.697-4.945-141.852,0
		C429.41,130.103,459.359,86.25,482.5,86.25z M722.749,249.472c-34.573-16.786-71.277-28.772-109.095-35.627
		c-6.854-37.817-18.84-74.521-35.627-109.095C644.033,131.165,696.335,183.467,722.749,249.472L722.749,249.472z M386.972,104.75
		c-16.786,34.574-28.772,71.278-35.627,109.095c-37.817,6.854-74.521,18.841-109.095,35.627
		C268.665,183.467,320.967,131.165,386.972,104.75z M242.25,440.527c34.574,16.787,71.278,28.773,109.095,35.627
		c6.854,37.817,18.841,74.521,35.627,109.095C320.967,558.835,268.665,506.533,242.25,440.527z M578.027,585.249
		c16.787-34.573,28.773-71.277,35.627-109.095c37.817-6.854,74.521-18.84,109.095-35.627
		C696.335,506.533,644.033,558.835,578.027,585.249L578.027,585.249z"/>
</g>
</svg>
