<?xml version="1.0" encoding="utf-8"?>
<!-- Generator: Adobe Illustrator 16.0.0, SVG Export Plug-In . SVG Version: 6.00 Build 0)  -->
<!DOCTYPE svg PUBLIC "-//W3C//DTD SVG 1.1//EN" "http://www.w3.org/Graphics/SVG/1.1/DTD/svg11.dtd">
<svg version="1.1" id="Layer_1" xmlns="http://www.w3.org/2000/svg" xmlns:xlink="http://www.w3.org/1999/xlink" x="0px" y="0px"
	 width="965px" height="690px" viewBox="0 0 965 690" enable-background="new 0 0 965 690" xml:space="preserve">
<title>Artboard-50</title>
<g id="Gear">
	<path fill="#F05A28" d="M482.5,201.25c-79.391,0-143.75,64.359-143.75,143.75c0,79.391,64.359,143.75,143.75,143.75
		S626.25,424.391,626.25,345C626.156,265.648,561.853,201.343,482.5,201.25z M482.5,431.25c-47.635,0-86.25-38.615-86.25-86.25
		s38.615-86.25,86.25-86.25s86.25,38.615,86.25,86.25C568.697,392.613,530.113,431.197,482.5,431.25z"/>
	<path fill="#F05A28" d="M758.518,256.45l-37.792-6.325l-2.694-6.486l22.235-31.165c13.785-19.141,11.606-45.463-5.138-62.077
		l-57.977-57.998c-16.629-16.752-42.962-18.945-62.132-5.175l-31.165,22.235l-6.48-2.686L571.05,69.04
		c-3.781-23.279-23.919-40.359-47.503-40.29h-82.094c-23.564-0.072-43.695,16.977-47.503,40.233l-6.325,37.792l-6.486,2.694
		l-31.165-22.235c-19.141-13.784-45.462-11.605-62.077,5.138l-57.998,57.991c-16.766,16.622-18.96,42.966-5.175,62.132
		l22.235,31.165l-2.686,6.466l-37.734,6.325c-23.279,3.781-40.359,23.919-40.29,47.503v82.093
		c-0.072,23.564,16.977,43.695,40.233,47.503l37.904,6.325l2.665,6.402l-22.318,31.249c-13.785,19.141-11.606,45.463,5.138,62.077
		l57.991,57.997c16.629,16.751,42.961,18.944,62.132,5.175l31.165-22.235l6.486,2.694l6.325,37.734
		c3.784,23.268,23.91,40.341,47.483,40.281h82.094c23.564,0.072,43.695-16.977,47.503-40.232l6.325-37.904l6.402-2.665
		l31.249,22.318c19.137,13.799,45.469,11.619,62.077-5.138l58.003-57.977c16.766-16.622,18.96-42.966,5.175-62.132l-22.318-31.249
		l2.665-6.402l37.847-6.325c23.271-3.787,40.343-23.92,40.275-47.497v-82.093C798.822,280.388,781.773,260.258,758.518,256.45z
		 M741.25,378.129l-45.848,7.664c-9.777,1.637-18.021,8.195-21.815,17.354l-14.85,35.866c-3.804,9.163-2.607,19.641,3.163,27.712
		l26.981,37.792l-46.886,46.886L604.21,524.4c-8.082-5.741-18.544-6.936-27.712-3.163l-35.852,14.853
		c-9.158,3.794-15.717,12.038-17.354,21.815l-7.664,45.845h-66.258l-7.639-45.735c-1.635-9.786-8.206-18.034-17.379-21.815
		l-35.909-14.91c-9.174-3.787-19.651-2.592-27.738,3.163l-37.708,26.924l-46.886-46.874L303.1,466.71
		c5.77-8.07,6.966-18.548,3.163-27.712l-14.853-35.852c-3.793-9.158-12.038-15.717-21.815-17.354l-45.845-7.664v-66.258
		l45.735-7.639c9.791-1.632,18.044-8.203,21.827-17.379l14.91-35.909c3.803-9.172,2.608-19.657-3.163-27.738l-26.947-37.708
		l46.886-46.886l37.708,26.924c8.081,5.769,18.565,6.964,27.738,3.163l35.909-14.887c9.173-3.781,15.744-12.03,17.379-21.815
		l7.639-45.747h66.258l7.639,45.735c1.635,9.786,8.206,18.035,17.379,21.815l35.909,14.91c9.173,3.799,19.656,2.604,27.738-3.163
		l37.708-26.924l46.886,46.885l-26.925,37.708c-5.77,8.081-6.965,18.566-3.162,27.738l14.91,35.909
		c3.78,9.173,12.029,15.744,21.815,17.379l45.724,7.627V378.129z"/>
</g>
</svg>
