<?xml version="1.0" encoding="utf-8"?>
<!-- Generator: Adobe Illustrator 16.0.0, SVG Export Plug-In . SVG Version: 6.00 Build 0)  -->
<!DOCTYPE svg PUBLIC "-//W3C//DTD SVG 1.1//EN" "http://www.w3.org/Graphics/SVG/1.1/DTD/svg11.dtd">
<svg version="1.1" id="Layer_1" xmlns="http://www.w3.org/2000/svg" xmlns:xlink="http://www.w3.org/1999/xlink" x="0px" y="0px"
	 width="965px" height="690px" viewBox="0 0 965 690" enable-background="new 0 0 965 690" xml:space="preserve">
<title>Artboard-9</title>
<g id="Hierarcy">
	<path fill="#F05A28" d="M798.75,517.5H770v-86.25c0-15.878-12.872-28.75-28.75-28.75h-230V345h86.25
		c15.878,0,28.75-12.872,28.75-28.75V287.5c-0.121-40.494-21.595-77.921-56.494-98.46c17.79-20.577,27.632-46.839,27.744-74.04
		c0-63.513-51.487-115-115-115s-115,51.487-115,115c0.113,27.201,9.954,53.463,27.744,74.04
		c-34.898,20.539-56.373,57.966-56.494,98.46v28.75c0,15.878,12.872,28.75,28.75,28.75h86.25v57.5h-230
		c-15.878,0-28.75,12.872-28.75,28.75v86.25h-28.75c-15.878,0-28.75,12.872-28.75,28.75v115c0,15.878,12.872,28.75,28.75,28.75h115
		c15.878,0,28.75-12.872,28.75-28.75v-115c0-15.878-12.872-28.75-28.75-28.75H252.5V460h201.25v57.5H425
		c-15.878,0-28.75,12.872-28.75,28.75v115c0,15.878,12.872,28.75,28.75,28.75h115c15.878,0,28.75-12.872,28.75-28.75v-115
		c0-15.878-12.872-28.75-28.75-28.75h-28.75V460H712.5v57.5h-28.75c-15.878,0-28.75,12.872-28.75,28.75v115
		c0,15.878,12.872,28.75,28.75,28.75h115c15.878,0,28.75-12.872,28.75-28.75v-115C827.5,530.372,814.628,517.5,798.75,517.5z
		 M482.5,57.5c31.756,0,57.5,25.744,57.5,57.5s-25.744,57.5-57.5,57.5S425,146.756,425,115
		C425.036,83.259,450.759,57.537,482.5,57.5z M453.75,230h57.5c31.741,0.037,57.464,25.759,57.5,57.5h-172.5
		C396.287,255.759,422.009,230.037,453.75,230z M252.5,632.5H195V575h57.5V632.5z M511.25,632.5h-57.5V575h57.5V632.5z M770,632.5
		h-57.5V575H770V632.5z"/>
</g>
</svg>
