<?xml version="1.0" encoding="utf-8"?>
<!-- Generator: Adobe Illustrator 16.0.0, SVG Export Plug-In . SVG Version: 6.00 Build 0)  -->
<!DOCTYPE svg PUBLIC "-//W3C//DTD SVG 1.1//EN" "http://www.w3.org/Graphics/SVG/1.1/DTD/svg11.dtd">
<svg version="1.1" id="Layer_1" xmlns="http://www.w3.org/2000/svg" xmlns:xlink="http://www.w3.org/1999/xlink" x="0px" y="0px"
	 width="965px" height="690px" viewBox="0 0 965 690" enable-background="new 0 0 965 690" xml:space="preserve">
<title>Artboard-14</title>
<g id="Network">
	<path fill="#F05A28" d="M655,402.5c-40.822,0.121-79.643,17.7-106.662,48.3l-102.741-60.044c10.879-29.532,10.879-61.974,0-91.506
		l102.741-60.05c53.084,58.543,143.576,62.969,202.12,9.884s62.969-143.577,9.885-202.121
		C707.258-11.58,616.766-16.005,558.222,37.08c-30.085,27.28-47.161,66.059-46.972,106.67c0.186,15.596,2.942,31.054,8.159,45.753
		L416.662,249.55c-52.715-59.363-143.573-64.752-202.936-12.036c-59.363,52.715-64.752,143.573-12.037,202.937
		c52.715,59.363,143.573,64.752,202.937,12.036c4.246-3.771,8.266-7.79,12.036-12.036l102.741,60.044
		c-5.215,14.7-7.97,30.159-8.153,45.756C511.25,625.641,575.609,690,655,690s143.75-64.359,143.75-143.75S734.391,402.5,655,402.5z
		 M655,57.5c47.635,0,86.25,38.615,86.25,86.25S702.635,230,655,230s-86.25-38.615-86.25-86.25
		C568.803,96.137,607.387,57.552,655,57.5z M310,431.25c-47.635,0-86.25-38.615-86.25-86.25s38.615-86.25,86.25-86.25
		s86.25,38.615,86.25,86.25C396.198,392.613,357.613,431.197,310,431.25z M655,632.5c-47.635,0-86.25-38.615-86.25-86.25
		S607.365,460,655,460s86.25,38.615,86.25,86.25C741.197,593.863,702.613,632.447,655,632.5z"/>
</g>
</svg>
