<?xml version="1.0" encoding="utf-8"?>
<!-- Generator: Adobe Illustrator 16.0.0, SVG Export Plug-In . SVG Version: 6.00 Build 0)  -->
<!DOCTYPE svg PUBLIC "-//W3C//DTD SVG 1.1//EN" "http://www.w3.org/Graphics/SVG/1.1/DTD/svg11.dtd">
<svg version="1.1" id="Layer_1" xmlns="http://www.w3.org/2000/svg" xmlns:xlink="http://www.w3.org/1999/xlink" x="0px" y="0px"
	 width="965px" height="690px" viewBox="0 0 965 690" enable-background="new 0 0 965 690" xml:space="preserve">
<title>Artboard-4</title>
<g id="Chart">
	<path fill="#F05A28" d="M798.75,575H770V86.25c0-15.878-12.872-28.75-28.75-28.75h-115c-15.878,0-28.75,12.872-28.75,28.75V575
		h-28.75V230c0-15.878-12.872-28.75-28.75-28.75H425c-15.878,0-28.75,12.872-28.75,28.75v345H367.5V373.75
		c0-15.878-12.872-28.75-28.75-28.75h-115c-15.878,0-28.75,12.872-28.75,28.75V575h-28.75c-15.878,0-28.75,12.872-28.75,28.75
		s12.872,28.75,28.75,28.75h632.5c15.878,0,28.75-12.872,28.75-28.75S814.628,575,798.75,575z M252.5,575V402.5H310V575H252.5z
		 M453.75,575V258.75h57.5V575H453.75z M655,575V115h57.5v460H655z"/>
</g>
</svg>
