<?xml version="1.0" encoding="utf-8"?>
<!-- Generator: Adobe Illustrator 16.0.0, SVG Export Plug-In . SVG Version: 6.00 Build 0)  -->
<!DOCTYPE svg PUBLIC "-//W3C//DTD SVG 1.1//EN" "http://www.w3.org/Graphics/SVG/1.1/DTD/svg11.dtd">
<svg version="1.1" id="Layer_1" xmlns="http://www.w3.org/2000/svg" xmlns:xlink="http://www.w3.org/1999/xlink" x="0px" y="0px"
	 width="965px" height="690px" viewBox="0 0 965 690" enable-background="new 0 0 965 690" xml:space="preserve">
<title>Artboard-15</title>
<g id="Idea">
	<path fill="#F05A28" d="M482.5,0C355.532-0.064,252.552,102.812,252.488,229.781c-0.035,69.87,31.707,135.965,86.262,179.619
		v136.85c0,15.878,12.872,28.75,28.75,28.75c0,63.513,51.487,115,115,115s115-51.487,115-115c15.878,0,28.75-12.872,28.75-28.75
		V409.4c99.137-79.327,115.196-224.001,35.869-323.139C618.465,31.707,552.371-0.035,482.5,0z M568.75,488.75v28.75h-172.5v-28.75
		H568.75z M482.5,632.5c-31.741-0.036-57.464-25.759-57.5-57.5h115C539.964,606.741,514.241,632.464,482.5,632.5z M581.047,371.45
		c-7.711,5.372-12.304,14.178-12.297,23.575v36.225h-57.5v-74.345l49.076-49.079c11.031-11.421,10.715-29.622-0.706-40.652
		c-11.141-10.761-28.805-10.761-39.946,0L482.5,304.345l-37.174-37.171c-11.421-11.031-29.621-10.715-40.652,0.706
		c-10.761,11.142-10.761,28.806,0,39.947l49.076,49.079v74.345h-57.5v-36.225c0.007-9.397-4.586-18.203-12.296-23.575
		c-78.192-54.426-97.459-161.934-43.034-240.126c54.426-78.192,161.934-97.459,240.127-43.034
		c78.191,54.426,97.459,161.934,43.033,240.126C612.399,345.198,597.828,359.77,581.047,371.45z"/>
</g>
</svg>
